600 0 1 0           
15 SolidWorks 2009 14 ACIS 18.0.1 NT 24 Tue Oct 14 07:56:09 2008 
25.399999999999999 9.9999999999999995e-007 1e-010 
-0 body $1 $2 $-1 $-1 #
-1 name_attrib-gen-attrib $-1 $-1 $-1 $0 keep keep_kept ignore copy 36 14EC459E-1578-4974-868D-705A222D206E #
-2 lump $-1 $-1 $3 $0 #
-3 shell $-1 $-1 $-1 $4 $-1 $2 #
-4 face $-1 $5 $6 $3 $-1 $7 reversed single #
-5 face $-1 $8 $9 $3 $-1 $10 reversed single #
-6 loop $-1 $-1 $11 $4 #
-7 cone-surface $-1 1.0121068088133522 0.79239392117586416 0.18800000000000003 -0 -0 -1 -0.15700000000000053 0 0 1 I I 0 1 0.15700000000000053 forward I I I I #
-8 face $-1 $12 $13 $3 $-1 $14 reversed single #
-9 loop $-1 $15 $16 $5 #
-10 plane-surface $-1 1.012106808813352 -0.86317384875473746 0 0 0 1 39.370078740157481 0 0 forward_v I I I I #
-11 coedge $-1 $17 $18 $19 $20 forward $6 $-1 #
-12 face $-1 $21 $22 $3 $-1 $23 forward single #
-13 loop $-1 $-1 $24 $8 #
-14 plane-surface $-1 1.012106808813352 0.042393921175864741 0.18800000000000003 0 1 0 0 0 39.370078740157481 forward_v I I I I #
-15 loop $-1 $-1 $25 $5 #
-16 coedge $-1 $26 $26 $27 $28 forward $9 $-1 #
-17 coedge $-1 $27 $11 $29 $30 forward $6 $-1 #
-18 coedge $-1 $11 $27 $31 $32 reversed $6 $-1 #
-19 coedge $-1 $33 $33 $11 $20 reversed $34 $-1 #
-20 edge $-1 $35 -3.1415926535897931 $36 0 $11 $37 forward 7 unknown #
-21 face $-1 $38 $39 $3 $-1 $40 forward single #
-22 loop $-1 $-1 $41 $12 #
-23 cone-surface $-1 1.6371068088133522 0.16739392117586463 0.18800000000000003 -0 -0 -1 -0.12499999999999963 0 0 1 I I 0 1 0.12499999999999963 forward I I I I #
-24 coedge $-1 $42 $43 $44 $45 reversed $13 $-1 #
-25 coedge $-1 $46 $47 $48 $49 reversed $15 $-1 #
-26 coedge $-1 $16 $16 $50 $51 forward $9 $-1 #
-27 coedge $-1 $18 $17 $16 $28 reversed $6 $-1 #
-28 edge $-1 $52 -3.1415926535897931 $53 0 $16 $54 forward 7 unknown #
-29 coedge $-1 $55 $50 $17 $30 reversed $56 $-1 #
-30 edge $-1 $36 -0 $53 0.0047752000000000003 $17 $57 forward 7 unknown #
-31 coedge $-1 $50 $55 $18 $32 forward $56 $-1 #
-32 edge $-1 $35 -0 $52 0.0047752000000000003 $31 $58 forward 7 unknown #
-33 coedge $-1 $19 $19 $55 $59 reversed $34 $-1 #
-34 loop $-1 $-1 $19 $60 #
-35 vertex $-1 $59 $61 #
-36 vertex $-1 $30 $62 #
-37 ellipse-curve $-1 1.0121068088133522 0.79239392117586416 0.18800000000000003 0 0 1 0.15700000000000053 0 0 1 I I #
-38 face $-1 $63 $64 $3 $-1 $65 forward single #
-39 loop $-1 $-1 $66 $21 #
-40 plane-surface $-1 1.7621068088133516 -0.86317384875473746 0.18800000000000003 1 0 0 0 0 -39.370078740157481 forward_v I I I I #
-41 coedge $-1 $67 $68 $69 $70 reversed $22 $-1 #
-42 coedge $-1 $71 $24 $72 $73 forward $13 $-1 #
-43 coedge $-1 $24 $71 $74 $75 forward $13 $-1 #
-44 coedge $-1 $68 $67 $24 $45 forward $22 $-1 #
-45 edge $-1 $76 0.0031749999999999999 $77 0.0047752000000000003 $44 $78 forward 7 unknown #
-46 coedge $-1 $79 $25 $80 $81 forward $15 $-1 #
-47 coedge $-1 $25 $82 $83 $84 reversed $15 $-1 #
-48 coedge $-1 $85 $86 $25 $49 forward $87 $-1 #
-49 edge $-1 $88 1.5707963267948966 $89 3.1415926535896448 $48 $90 forward 7 unknown #
-50 coedge $-1 $29 $31 $26 $51 reversed $56 $-1 #
-51 edge $-1 $53 0 $52 3.1415926535897931 $26 $91 forward 7 unknown #
-52 vertex $-1 $51 $92 #
-53 vertex $-1 $30 $93 #
-54 ellipse-curve $-1 1.0121068088133522 0.79239392117586416 0 0 0 1 0.15700000000000053 0 0 1 I I #
-55 coedge $-1 $31 $29 $33 $59 forward $56 $-1 #
-56 loop $-1 $-1 $29 $94 #
-57 straight-curve $-1 1.1691068088133527 0.79239392117586416 0.18800000000000003 -0 -0 -39.370078740157481 I I #
-58 straight-curve $-1 0.85510680881335166 0.79239392117586416 0.18800000000000003 -0 -0 -39.370078740157481 I I #
-59 edge $-1 $36 0 $35 3.1415926535897931 $55 $95 forward 7 unknown #
-60 face $-1 $96 $97 $3 $-1 $98 forward single #
-61 point $-1 0.85510680881335166 0.79239392117586416 0.18800000000000003 #
-62 point $-1 1.1691068088133527 0.79239392117586416 0.18800000000000003 #
-63 face $-1 $99 $100 $3 $-1 $101 forward single #
-64 loop $-1 $-1 $102 $38 #
-65 cone-surface $-1 1.6371068088133522 1.4173939211758642 0.18800000000000003 -0 -0 -1 -0.1249999999999999 0 0 1 I I 0 1 0.1249999999999999 forward I I I I #
-66 coedge $-1 $103 $104 $105 $106 reversed $39 $-1 #
-67 coedge $-1 $44 $41 $107 $108 forward $22 $-1 #
-68 coedge $-1 $41 $44 $109 $110 forward $22 $-1 #
-69 coedge $-1 $104 $103 $41 $70 forward $39 $-1 #
-70 edge $-1 $111 0.0031749999999999999 $112 0.0047752000000000003 $69 $113 forward 7 unknown #
-71 coedge $-1 $43 $42 $114 $115 forward $13 $-1 #
-72 coedge $-1 $116 $117 $42 $73 reversed $118 $-1 #
-73 edge $-1 $76 -0.03175 $119 0 $42 $120 forward 7 unknown #
-74 coedge $-1 $121 $109 $43 $75 reversed $15 $-1 #
-75 edge $-1 $122 -0.015874999999999993 $77 0.015875000000000004 $43 $123 forward 7 unknown #
-76 vertex $-1 $108 $124 #
-77 vertex $-1 $45 $125 #
-78 straight-curve $-1 1.6371068088133522 0.042393921175864741 0.18800000000000003 -0 -0 -39.370078740157481 I I #
-79 coedge $-1 $126 $46 $127 $128 reversed $15 $-1 #
-80 coedge $-1 $129 $130 $46 $81 reversed $100 $-1 #
-81 edge $-1 $88 0.0036322000000000229 $131 0.015875000000000004 $46 $132 forward 7 unknown #
-82 coedge $-1 $47 $133 $134 $135 reversed $15 $-1 #
-83 coedge $-1 $136 $137 $47 $84 forward $138 $-1 #
-84 edge $-1 $89 0 $139 0.0032004000000000195 $83 $140 forward 7 unknown #
-85 coedge $-1 $141 $48 $137 $142 reversed $87 $-1 #
-86 coedge $-1 $48 $141 $129 $143 forward $87 $-1 #
-87 loop $-1 $-1 $48 $144 #
-88 vertex $-1 $49 $145 #
-89 vertex $-1 $84 $146 #
-90 ellipse-curve $-1 1.1551068088133529 1.5273939211758627 0 0 0 -1 -0.014999999999999703 0 0 1 I I #
-91 ellipse-curve $-1 1.0121068088133522 0.79239392117586416 0 0 0 1 0.15700000000000053 0 0 1 I I #
-92 point $-1 0.85510680881335166 0.79239392117586416 0 #
-93 point $-1 1.1691068088133527 0.79239392117586416 0 #
-94 face $-1 $147 $56 $3 $-1 $148 reversed single #
-95 ellipse-curve $-1 1.0121068088133522 0.79239392117586416 0.18800000000000003 0 0 1 0.15700000000000053 0 0 1 I I #
-96 face $-1 $149 $150 $3 $-1 $151 forward single #
-97 loop $-1 $34 $152 $60 #
-98 plane-surface $-1 1.012106808813352 -0.86317384875473746 0.18800000000000003 0 0 1 39.370078740157481 0 0 forward_v I I I I #
-99 face $-1 $153 $154 $3 $-1 $155 forward single #
-100 loop $-1 $-1 $156 $63 #
-101 plane-surface $-1 1.012106808813352 1.5423939211758646 0.18800000000000003 0 1 0 0 0 39.370078740157481 forward_v I I I I #
-102 coedge $-1 $157 $127 $130 $158 reversed $64 $-1 #
-103 coedge $-1 $69 $66 $159 $160 forward $39 $-1 #
-104 coedge $-1 $66 $69 $126 $161 reversed $39 $-1 #
-105 coedge $-1 $127 $157 $66 $106 forward $64 $-1 #
-106 edge $-1 $162 0.0031749999999999999 $163 0.0047752000000000003 $105 $164 forward 7 unknown #
-107 coedge $-1 $165 $166 $67 $108 reversed $150 $-1 #
-108 edge $-1 $111 -3.141592653589794 $76 -1.5707963267948966 $67 $167 forward 7 unknown #
-109 coedge $-1 $74 $126 $68 $110 reversed $15 $-1 #
-110 edge $-1 $77 -1.5707963267948966 $112 1.1102230246251605e-015 $68 $168 forward 7 unknown #
-111 vertex $-1 $160 $169 #
-112 vertex $-1 $70 $170 #
-113 straight-curve $-1 1.7621068088133516 0.16739392117586477 0.18800000000000003 -0 -0 -39.370078740157481 I I #
-114 coedge $-1 $171 $172 $71 $115 reversed $173 $-1 #
-115 edge $-1 $119 0.0031749999999999999 $122 0.0047752000000000003 $71 $174 forward 7 unknown #
-116 coedge $-1 $175 $72 $166 $176 forward $118 $-1 #
-117 coedge $-1 $72 $175 $177 $178 reversed $118 $-1 #
-118 loop $-1 $-1 $116 $179 #
-119 vertex $-1 $73 $180 #
-120 straight-curve $-1 0.38710680881335219 0.042393921175864741 0.063000000000000014 -39.370078740157481 0 0 I I #
-121 coedge $-1 $181 $74 $172 $182 reversed $15 $-1 #
-122 vertex $-1 $115 $183 #
-123 straight-curve $-1 1.012106808813352 0.042393921175864741 0 39.370078740157481 0 0 I I #
-124 point $-1 1.6371068088133522 0.042393921175864741 0.063000000000000014 #
-125 point $-1 1.6371068088133522 0.042393921175864741 0 #
-126 coedge $-1 $109 $79 $104 $161 forward $15 $-1 #
-127 coedge $-1 $102 $105 $79 $128 forward $64 $-1 #
-128 edge $-1 $163 0 $131 1.5707963267948966 $127 $184 forward 7 unknown #
-129 coedge $-1 $185 $80 $86 $143 reversed $100 $-1 #
-130 coedge $-1 $80 $186 $102 $158 forward $100 $-1 #
-131 vertex $-1 $81 $187 #
-132 straight-curve $-1 1.012106808813352 1.5423939211758646 0 39.370078740157481 0 0 I I #
-133 coedge $-1 $82 $188 $189 $190 reversed $15 $-1 #
-134 coedge $-1 $191 $192 $82 $135 forward $193 $-1 #
-135 edge $-1 $139 -3.1415926535897194 $194 -1.5707963267948521 $134 $195 forward 7 unknown #
-136 coedge $-1 $196 $83 $192 $197 reversed $138 $-1 #
-137 coedge $-1 $83 $196 $85 $142 forward $138 $-1 #
-138 loop $-1 $-1 $83 $198 #
-139 vertex $-1 $135 $199 #
-140 straight-curve $-1 1.1701068088133526 1.5273939211758649 0 0 -39.370078740157481 0 I I #
-141 coedge $-1 $86 $85 $200 $201 reversed $87 $-1 #
-142 edge $-1 $202 0 $89 0.0039623999999999996 $137 $203 forward 7 unknown #
-143 edge $-1 $204 0 $88 0.0039623999999999996 $86 $205 forward 7 unknown #
-144 face $-1 $198 $87 $3 $-1 $206 forward single #
-145 point $-1 1.1551068088133529 1.5423939211758646 0 #
-146 point $-1 1.1701068088133526 1.5273939211758649 0 #
-147 face $-1 $60 $173 $3 $-1 $207 forward single #
-148 cone-surface $-1 1.0121068088133522 0.79239392117586416 0.18800000000000003 -0 -0 -1 -0.15700000000000053 0 0 1 I I 0 1 0.15700000000000053 forward I I I I #
-149 face $-1 $179 $208 $3 $-1 $209 forward single #
-150 loop $-1 $-1 $166 $96 #
-151 sphere-surface $-1 1.6371068088133522 0.16739392117586463 0.063000000000000014 0.125 1 0 0 0 0 1 forward_v I I I I #
-152 coedge $-1 $210 $211 $212 $213 forward $97 $-1 #
-153 face $-1 $94 $214 $3 $-1 $215 reversed single #
-154 loop $-1 $-1 $216 $99 #
-155 cone-surface $-1 0.38710680881335219 1.4173939211758642 0.18800000000000003 -0 -0 -1 -0.12500000000000017 0 0 1 I I 0 1 0.12500000000000017 forward I I I I #
-156 coedge $-1 $186 $217 $218 $219 reversed $100 $-1 #
-157 coedge $-1 $105 $102 $220 $221 forward $64 $-1 #
-158 edge $-1 $222 0.0031749999999999999 $131 0.0047752000000000003 $130 $223 forward 7 unknown #
-159 coedge $-1 $224 $225 $103 $160 reversed $208 $-1 #
-160 edge $-1 $162 -0.057926421356237275 $111 -0.026176421356237295 $103 $226 forward 7 unknown #
-161 edge $-1 $163 -0.057926421356237275 $112 -0.026176421356237295 $126 $227 forward 7 unknown #
-162 vertex $-1 $221 $228 #
-163 vertex $-1 $106 $229 #
-164 straight-curve $-1 1.7621068088133516 1.4173939211758642 0.18800000000000003 -0 -0 -39.370078740157481 I I #
-165 coedge $-1 $166 $107 $225 $230 reversed $150 $-1 #
-166 coedge $-1 $107 $165 $116 $176 reversed $150 $-1 #
-167 ellipse-curve $-1 1.6371068088133522 0.16739392117586463 0.063000000000000014 -0 -0 -1 -0.12499999999999963 0 0 1 I I #
-168 ellipse-curve $-1 1.6371068088133522 0.16739392117586463 0 0 0 1 0.12499999999999963 0 0 1 I I #
-169 point $-1 1.7621068088133516 0.16739392117586477 0.063000000000000014 #
-170 point $-1 1.7621068088133516 0.16739392117586477 0 #
-171 coedge $-1 $231 $114 $232 $233 forward $173 $-1 #
-172 coedge $-1 $114 $231 $121 $182 forward $173 $-1 #
-173 loop $-1 $-1 $114 $147 #
-174 straight-curve $-1 0.38710680881335219 0.042393921175864741 0.18800000000000003 -0 -0 -39.370078740157481 I I #
-175 coedge $-1 $117 $116 $234 $235 reversed $118 $-1 #
-176 edge $-1 $76 -1.5707963267948966 $236 -3.1086244689504383e-015 $116 $237 forward 7 unknown #
-177 coedge $-1 $238 $232 $117 $178 forward $239 $-1 #
-178 edge $-1 $119 -1.5707963267948966 $240 2.2204460492503131e-016 $177 $241 forward 7 unknown #
-179 face $-1 $242 $118 $3 $-1 $243 forward single #
-180 point $-1 0.38710680881335219 0.042393921175864741 0.063000000000000014 #
-181 coedge $-1 $244 $121 $245 $246 reversed $15 $-1 #
-182 edge $-1 $247 -3.141592653589794 $122 -1.5707963267948966 $172 $248 forward 7 unknown #
-183 point $-1 0.38710680881335219 0.042393921175864741 0 #
-184 ellipse-curve $-1 1.6371068088133522 1.4173939211758642 0 0 0 1 0.1249999999999999 0 0 1 I I #
-185 coedge $-1 $249 $129 $250 $251 reversed $100 $-1 #
-186 coedge $-1 $130 $156 $252 $253 forward $100 $-1 #
-187 point $-1 1.6371068088133522 1.5423939211758646 0 #
-188 coedge $-1 $133 $254 $255 $256 reversed $15 $-1 #
-189 coedge $-1 $257 $258 $133 $190 forward $259 $-1 #
-190 edge $-1 $194 0 $260 0.0072644000000000033 $189 $261 forward 7 unknown #
-191 coedge $-1 $262 $134 $258 $263 reversed $193 $-1 #
-192 coedge $-1 $134 $262 $136 $197 forward $193 $-1 #
-193 loop $-1 $-1 $134 $264 #
-194 vertex $-1 $190 $265 #
-195 ellipse-curve $-1 1.1551068088133529 1.4013939211758653 0 0 0 -1 -0.015000000000000249 0 0 1 I I #
-196 coedge $-1 $137 $136 $266 $267 reversed $138 $-1 #
-197 edge $-1 $268 0 $139 0.0039623999999999996 $192 $269 forward 7 unknown #
-198 face $-1 $270 $138 $3 $-1 $271 reversed single #
-199 point $-1 1.1701068088133526 1.4013939211758641 0 #
-200 coedge $-1 $266 $250 $141 $201 forward $272 $-1 #
-201 edge $-1 $204 1.5707963267948521 $202 3.1415926535896448 $200 $273 forward 7 unknown #
-202 vertex $-1 $201 $274 #
-203 straight-curve $-1 1.1701068088133526 1.5273939211758649 -0.156 0 0 39.370078740157481 I I #
-204 vertex $-1 $251 $275 #
-205 straight-curve $-1 1.1551068088133523 1.5423939211758624 -0.156 0 0 39.370078740157481 I I #
-206 cone-surface $-1 1.1551068088133529 1.5273939211758627 -0.156 0 0 1 0.014999999999999703 0 0 1 I I 0 1 0.014999999999999703 forward I I I I #
-207 cone-surface $-1 0.38710680881335219 0.16739392117586463 0.18800000000000003 -0 -0 -1 -0.1249999999999999 0 0 1 I I 0 1 0.1249999999999999 forward I I I I #
-208 loop $-1 $-1 $225 $149 #
-209 cone-surface $-1 1.6371068088133518 -0.86317384875473746 0.063000000000000014 0 -1 0 0 0 -0.125 1 I I 0 1 0.125 forward I I I I #
-210 coedge $-1 $234 $152 $276 $277 forward $97 $-1 #
-211 coedge $-1 $152 $234 $278 $279 forward $97 $-1 #
-212 coedge $-1 $280 $281 $152 $213 reversed $282 $-1 #
-213 edge $-1 $283 -0.015875000000000004 $284 0.015874999999999993 $152 $285 forward 7 unknown #
-214 loop $-1 $-1 $286 $153 #
-215 plane-surface $-1 0.2621068088133523 -0.86317384875473746 0.18800000000000003 1 0 0 0 0 -39.370078740157481 forward_v I I I I #
-216 coedge $-1 $287 $288 $289 $290 reversed $154 $-1 #
-217 coedge $-1 $156 $249 $291 $292 reversed $100 $-1 #
-218 coedge $-1 $288 $287 $156 $219 forward $154 $-1 #
-219 edge $-1 $293 0.0031749999999999999 $294 0.0047752000000000003 $218 $295 forward 7 unknown #
-220 coedge $-1 $296 $297 $157 $221 reversed $298 $-1 #
-221 edge $-1 $222 1.5707963267948966 $162 3.1415926535897931 $157 $299 forward 7 unknown #
-222 vertex $-1 $253 $300 #
-223 straight-curve $-1 1.6371068088133522 1.5423939211758646 0.18800000000000003 -0 -0 -39.370078740157481 I I #
-224 coedge $-1 $278 $159 $297 $301 reversed $208 $-1 #
-225 coedge $-1 $159 $278 $165 $230 forward $208 $-1 #
-226 straight-curve $-1 1.7621068088133516 -0.86317384875473746 0.063000000000000014 0 -39.370078740157481 0 I I #
-227 straight-curve $-1 1.7621068088133516 -0.86317384875473746 0 0 -39.370078740157481 0 I I #
-228 point $-1 1.7621068088133516 1.4173939211758642 0.063000000000000014 #
-229 point $-1 1.7621068088133516 1.4173939211758642 0 #
-230 edge $-1 $236 1.570796326794893 $111 3.1415926535897931 $225 $302 forward 7 unknown #
-231 coedge $-1 $172 $171 $286 $303 forward $173 $-1 #
-232 coedge $-1 $177 $238 $171 $233 reversed $239 $-1 #
-233 edge $-1 $119 -1.5707963267948966 $304 1.1102230246251573e-015 $171 $305 forward 7 unknown #
-234 coedge $-1 $211 $210 $175 $235 forward $97 $-1 #
-235 edge $-1 $240 -0.03175 $236 -1.127986593019159e-017 $234 $306 forward 7 unknown #
-236 vertex $-1 $235 $307 #
-237 ellipse-curve $-1 1.6371068088133522 0.16739392117586502 0.063000000000000014 -1 0 0 0 0 0.125 1 I I #
-238 coedge $-1 $232 $177 $308 $309 reversed $239 $-1 #
-239 loop $-1 $-1 $232 $310 #
-240 vertex $-1 $309 $311 #
-241 ellipse-curve $-1 0.38710680881335219 0.16739392117586474 0.063000000000000014 -1 0 0 0 0 0.125 1 I I #
-242 face $-1 $310 $298 $3 $-1 $312 forward single #
-243 cone-surface $-1 1.012106808813352 0.16739392117586477 0.063000000000000014 -1 0 0 0 0 0.125 1 I I 0 1 0.125 forward I I I I #
-244 coedge $-1 $291 $181 $288 $313 reversed $15 $-1 #
-245 coedge $-1 $286 $289 $181 $246 forward $214 $-1 #
-246 edge $-1 $314 -0.057926421356237275 $247 -0.026176421356237295 $245 $315 forward 7 unknown #
-247 vertex $-1 $303 $316 #
-248 ellipse-curve $-1 0.38710680881335219 0.16739392117586463 0 0 0 1 0.1249999999999999 0 0 1 I I #
-249 coedge $-1 $217 $185 $317 $318 forward $100 $-1 #
-250 coedge $-1 $200 $319 $185 $251 forward $272 $-1 #
-251 edge $-1 $320 0 $204 0.0072644000000000033 $250 $321 forward 7 unknown #
-252 coedge $-1 $281 $280 $186 $253 reversed $282 $-1 #
-253 edge $-1 $293 -0.015874999999999993 $222 0.015875000000000004 $186 $322 forward 7 unknown #
-254 coedge $-1 $188 $323 $324 $325 reversed $15 $-1 #
-255 coedge $-1 $326 $327 $188 $256 forward $328 $-1 #
-256 edge $-1 $260 -1.5707963267948966 $329 -7.4014868308342617e-014 $255 $330 forward 7 unknown #
-257 coedge $-1 $331 $189 $327 $332 reversed $259 $-1 #
-258 coedge $-1 $189 $331 $191 $263 forward $259 $-1 #
-259 loop $-1 $-1 $189 $333 #
-260 vertex $-1 $256 $334 #
-261 straight-curve $-1 1.1551068088133523 1.3863939211758645 0 -39.370078740157481 0 0 I I #
-262 coedge $-1 $192 $191 $335 $336 reversed $193 $-1 #
-263 edge $-1 $337 0 $194 0.0039623999999999996 $258 $338 forward 7 unknown #
-264 face $-1 $333 $193 $3 $-1 $339 forward single #
-265 point $-1 1.1551068088133523 1.3863939211758645 0 #
-266 coedge $-1 $335 $200 $196 $267 forward $272 $-1 #
-267 edge $-1 $202 0 $268 0.0032004000000000195 $266 $340 forward 7 unknown #
-268 vertex $-1 $267 $341 #
-269 straight-curve $-1 1.1701068088133526 1.4013939211758641 -0.156 0 0 39.370078740157481 I I #
-270 face $-1 $-1 $272 $3 $-1 $342 forward single #
-271 plane-surface $-1 1.1701068088133526 1.5273939211758649 -0.156 -1 0 0 0 0 39.370078740157481 forward_v I I I I #
-272 loop $-1 $-1 $335 $270 #
-273 ellipse-curve $-1 1.1551068088133529 1.5273939211758627 -0.156 0 0 -1 -0.014999999999999703 0 0 1 I I #
-274 point $-1 1.1701068088133526 1.5273939211758649 -0.156 #
-275 point $-1 1.1551068088133523 1.5423939211758624 -0.156 #
-276 coedge $-1 $343 $308 $210 $277 reversed $344 $-1 #
-277 edge $-1 $284 -0.031749999999999994 $240 0 $210 $345 forward 7 unknown #
-278 coedge $-1 $225 $224 $211 $279 reversed $208 $-1 #
-279 edge $-1 $236 0.026176421356237295 $283 0.057926421356237288 $211 $346 forward 7 unknown #
-280 coedge $-1 $252 $212 $296 $347 forward $282 $-1 #
-281 coedge $-1 $212 $252 $348 $349 reversed $282 $-1 #
-282 loop $-1 $-1 $280 $350 #
-283 vertex $-1 $279 $351 #
-284 vertex $-1 $213 $352 #
-285 straight-curve $-1 1.012106808813352 1.4173939211758646 0.18800000000000003 -39.370078740157481 -0 -0 I I #
-286 coedge $-1 $353 $245 $231 $303 reversed $214 $-1 #
-287 coedge $-1 $218 $216 $354 $355 forward $154 $-1 #
-288 coedge $-1 $216 $218 $244 $313 forward $154 $-1 #
-289 coedge $-1 $245 $353 $216 $290 forward $214 $-1 #
-290 edge $-1 $356 0.0031749999999999999 $314 0.0047752000000000003 $289 $357 forward 7 unknown #
-291 coedge $-1 $323 $244 $217 $292 forward $15 $-1 #
-292 edge $-1 $294 -0.015874999999999993 $358 -0.0036321999999999973 $291 $359 forward 7 unknown #
-293 vertex $-1 $349 $360 #
-294 vertex $-1 $219 $361 #
-295 straight-curve $-1 0.38710680881335219 1.5423939211758646 0.18800000000000003 -0 -0 -39.370078740157481 I I #
-296 coedge $-1 $297 $220 $280 $347 reversed $298 $-1 #
-297 coedge $-1 $220 $296 $224 $301 forward $298 $-1 #
-298 loop $-1 $-1 $297 $242 #
-299 ellipse-curve $-1 1.6371068088133522 1.4173939211758642 0.063000000000000014 -0 -0 -1 -0.1249999999999999 0 0 1 I I #
-300 point $-1 1.6371068088133522 1.5423939211758646 0.063000000000000014 #
-301 edge $-1 $283 3.5527136788005009e-015 $162 1.5707963267948966 $297 $362 forward 7 unknown #
-302 ellipse-curve $-1 1.6371068088133522 0.16739392117586463 0.063000000000000014 -1.0927391974657084e-015 1 0 -0.1249999999999999 -1.3659239968321316e-016 0 1 I I #
-303 edge $-1 $304 0.0031749999999999999 $247 0.0047752000000000003 $231 $363 forward 7 unknown #
-304 vertex $-1 $233 $364 #
-305 ellipse-curve $-1 0.38710680881335219 0.16739392117586463 0.063000000000000014 -0 -0 -1 -0.1249999999999999 0 0 1 I I #
-306 straight-curve $-1 1.6371068088133522 0.16739392117586477 0.18800000000000003 39.370078740157481 0 0 I I #
-307 point $-1 1.6371068088133518 0.16739392117586463 0.18800000000000003 #
-308 coedge $-1 $276 $365 $238 $309 forward $344 $-1 #
-309 edge $-1 $304 -2.087707004084444e-047 $240 1.5707963267948957 $308 $366 forward 7 unknown #
-310 face $-1 $350 $239 $3 $-1 $367 forward single #
-311 point $-1 0.38710680881335219 0.16739392117586477 0.18800000000000003 #
-312 sphere-surface $-1 1.6371068088133522 1.4173939211758642 0.063000000000000014 0.125 1 0 0 0 0 1 forward_v I I I I #
-313 edge $-1 $294 1.5707963267948966 $314 3.1415926535897931 $288 $368 forward 7 unknown #
-314 vertex $-1 $290 $369 #
-315 straight-curve $-1 0.2621068088133523 -0.86317384875473746 0 0 -39.370078740157481 0 I I #
-316 point $-1 0.2621068088133523 0.16739392117586477 0 #
-317 coedge $-1 $370 $371 $249 $318 reversed $372 $-1 #
-318 edge $-1 $320 0 $358 0.0039623999999999996 $249 $373 forward 7 unknown #
-319 coedge $-1 $250 $374 $370 $375 forward $272 $-1 #
-320 vertex $-1 $375 $376 #
-321 straight-curve $-1 0.86910680881335212 1.5423939211758624 -0.156 39.370078740157481 0 0 I I #
-322 straight-curve $-1 1.012106808813352 1.5423939211758646 0.063000000000000014 39.370078740157481 0 0 I I #
-323 coedge $-1 $254 $291 $371 $377 reversed $15 $-1 #
-324 coedge $-1 $378 $379 $254 $325 forward $380 $-1 #
-325 edge $-1 $329 -0.0032004000000000195 $381 0 $324 $382 forward 7 unknown #
-326 coedge $-1 $383 $255 $379 $384 reversed $328 $-1 #
-327 coedge $-1 $255 $383 $257 $332 forward $328 $-1 #
-328 loop $-1 $-1 $255 $385 #
-329 vertex $-1 $325 $386 #
-330 ellipse-curve $-1 0.86910680881335212 1.4013939211758653 0 0 0 -1 -0.015000000000000249 0 0 1 I I #
-331 coedge $-1 $258 $257 $387 $388 reversed $259 $-1 #
-332 edge $-1 $389 0 $260 0.0039623999999999996 $327 $390 forward 7 unknown #
-333 face $-1 $385 $259 $3 $-1 $391 reversed single #
-334 point $-1 0.86910680881335212 1.3863939211758645 0 #
-335 coedge $-1 $387 $266 $262 $336 forward $272 $-1 #
-336 edge $-1 $268 -3.1415926535897194 $337 -1.5707963267948521 $335 $392 forward 7 unknown #
-337 vertex $-1 $388 $393 #
-338 straight-curve $-1 1.1551068088133523 1.3863939211758645 -0.156 0 0 39.370078740157481 I I #
-339 cone-surface $-1 1.1551068088133529 1.4013939211758653 -0.156 0 0 1 0.015000000000000249 0 0 1 I I 0 1 0.015000000000000249 forward I I I I #
-340 straight-curve $-1 1.1701068088133526 1.5273939211758649 -0.156 0 -39.370078740157481 0 I I #
-341 point $-1 1.1701068088133526 1.4013939211758641 -0.156 #
-342 plane-surface $-1 1.1551068088133529 1.4013939211758653 -0.156 0 0 -1 -39.370078740157481 0 0 forward_v I I I I #
-343 coedge $-1 $365 $276 $394 $395 reversed $344 $-1 #
-344 loop $-1 $-1 $308 $396 #
-345 straight-curve $-1 0.3871068088133523 0.16739392117586477 0.18800000000000003 0 -39.370078740157481 0 I I #
-346 straight-curve $-1 1.6371068088133518 -0.86317384875473746 0.18800000000000003 0 39.370078740157481 0 I I #
-347 edge $-1 $283 3.5527136788005009e-015 $222 1.5707963267948966 $280 $397 forward 7 unknown #
-348 coedge $-1 $354 $394 $281 $349 forward $398 $-1 #
-349 edge $-1 $284 0 $293 1.5707963267948966 $348 $399 forward 7 unknown #
-350 face $-1 $396 $282 $3 $-1 $400 forward single #
-351 point $-1 1.6371068088133522 1.4173939211758646 0.18800000000000003 #
-352 point $-1 0.38710680881335219 1.4173939211758646 0.18800000000000003 #
-353 coedge $-1 $289 $286 $365 $401 forward $214 $-1 #
-354 coedge $-1 $394 $348 $287 $355 reversed $398 $-1 #
-355 edge $-1 $356 0 $293 1.5707963267948966 $287 $402 forward 7 unknown #
-356 vertex $-1 $401 $403 #
-357 straight-curve $-1 0.2621068088133523 1.4173939211758642 0.18800000000000003 -0 -0 -39.370078740157481 I I #
-358 vertex $-1 $292 $404 #
-359 straight-curve $-1 1.012106808813352 1.5423939211758646 0 39.370078740157481 0 0 I I #
-360 point $-1 0.38710680881335219 1.5423939211758646 0.063000000000000014 #
-361 point $-1 0.38710680881335219 1.5423939211758646 0 #
-362 ellipse-curve $-1 1.6371068088133518 1.4173939211758642 0.063000000000000014 0 1 0 0 0 0.125 1 I I #
-363 straight-curve $-1 0.2621068088133523 0.16739392117586477 0.18800000000000003 -0 -0 -39.370078740157481 I I #
-364 point $-1 0.2621068088133523 0.16739392117586477 0.063000000000000014 #
-365 coedge $-1 $308 $343 $353 $401 reversed $344 $-1 #
-366 ellipse-curve $-1 0.3871068088133523 0.16739392117586463 0.063000000000000014 1.0927391974657053e-015 1 1.1940789536779937e-030 -0.125 1.3659239968321316e-016 0 1 I I #
-367 sphere-surface $-1 0.38710680881335219 0.16739392117586463 0.063000000000000014 0.125 1 0 0 0 0 1 forward_v I I I I #
-368 ellipse-curve $-1 0.38710680881335219 1.4173939211758642 0 0 0 1 0.12500000000000017 0 0 1 I I #
-369 point $-1 0.2621068088133523 1.4173939211758642 0 #
-370 coedge $-1 $405 $317 $319 $375 reversed $372 $-1 #
-371 coedge $-1 $317 $405 $323 $377 forward $372 $-1 #
-372 loop $-1 $-1 $371 $406 #
-373 straight-curve $-1 0.86910680881335212 1.5423939211758624 -0.156 0 0 39.370078740157481 I I #
-374 coedge $-1 $319 $407 $408 $409 forward $272 $-1 #
-375 edge $-1 $410 1.4802973661669069e-013 $320 1.5707963267948966 $319 $411 forward 7 unknown #
-376 point $-1 0.86910680881335212 1.5423939211758624 -0.156 #
-377 edge $-1 $381 1.4802973661669069e-013 $358 1.5707963267948966 $371 $412 forward 7 unknown #
-378 coedge $-1 $408 $324 $405 $413 reversed $380 $-1 #
-379 coedge $-1 $324 $408 $326 $384 forward $380 $-1 #
-380 loop $-1 $-1 $324 $414 #
-381 vertex $-1 $377 $415 #
-382 straight-curve $-1 0.85410680881335244 1.5273939211758649 0 0 39.370078740157481 0 I I #
-383 coedge $-1 $327 $326 $407 $416 reversed $328 $-1 #
-384 edge $-1 $417 0 $329 0.0039623999999999996 $379 $418 forward 7 unknown #
-385 face $-1 $414 $328 $3 $-1 $419 forward single #
-386 point $-1 0.85410680881335188 1.4013939211758641 0 #
-387 coedge $-1 $407 $335 $331 $388 forward $272 $-1 #
-388 edge $-1 $337 0 $389 0.0072644000000000033 $387 $420 forward 7 unknown #
-389 vertex $-1 $388 $421 #
-390 straight-curve $-1 0.86910680881335212 1.3863939211758645 -0.156 0 0 39.370078740157481 I I #
-391 plane-surface $-1 1.1551068088133523 1.3863939211758645 -0.156 0 1 0 0 0 39.370078740157481 forward_v I I I I #
-392 ellipse-curve $-1 1.1551068088133529 1.4013939211758653 -0.156 0 0 -1 -0.015000000000000249 0 0 1 I I #
-393 point $-1 1.1551068088133523 1.3863939211758645 -0.156 #
-394 coedge $-1 $348 $354 $343 $395 forward $398 $-1 #
-395 edge $-1 $356 -1.5707963267948966 $284 -8.8817841970012523e-016 $394 $422 forward 7 unknown #
-396 face $-1 $423 $344 $3 $-1 $424 forward single #
-397 ellipse-curve $-1 1.6371068088133522 1.4173939211758642 0.063000000000000014 -1 0 0 0 0 0.125 1 I I #
-398 loop $-1 $-1 $348 $423 #
-399 ellipse-curve $-1 0.38710680881335219 1.4173939211758646 0.063000000000000014 -1 0 0 0 0 0.125 1 I I #
-400 cone-surface $-1 1.012106808813352 1.4173939211758646 0.063000000000000014 1 0 0 0 0 -0.125 1 I I 0 1 0.125 forward I I I I #
-401 edge $-1 $304 -0.03174999999999998 $356 0 $353 $425 forward 7 unknown #
-402 ellipse-curve $-1 0.38710680881335219 1.4173939211758642 0.063000000000000014 -0 -0 -1 -0.12500000000000017 0 0 1 I I #
-403 point $-1 0.2621068088133523 1.4173939211758642 0.063000000000000014 #
-404 point $-1 0.86910680881335212 1.5423939211758646 0 #
-405 coedge $-1 $371 $370 $378 $413 forward $372 $-1 #
-406 face $-1 $144 $372 $3 $-1 $426 forward single #
-407 coedge $-1 $374 $387 $383 $416 forward $272 $-1 #
-408 coedge $-1 $379 $378 $374 $409 reversed $380 $-1 #
-409 edge $-1 $417 -0.0032004000000000195 $410 0 $374 $427 forward 7 unknown #
-410 vertex $-1 $409 $428 #
-411 ellipse-curve $-1 0.86910680881335212 1.5273939211758627 -0.156 0 0 -1 -0.014999999999999703 0 0 1 I I #
-412 ellipse-curve $-1 0.86910680881335212 1.5273939211758627 0 0 0 -1 -0.014999999999999703 0 0 1 I I #
-413 edge $-1 $410 0 $381 0.0039623999999999996 $405 $429 forward 7 unknown #
-414 face $-1 $406 $380 $3 $-1 $430 reversed single #
-415 point $-1 0.85410680881335244 1.5273939211758649 0 #
-416 edge $-1 $389 -1.5707963267948966 $417 -7.4014868308342617e-014 $407 $431 forward 7 unknown #
-417 vertex $-1 $416 $432 #
-418 straight-curve $-1 0.85410680881335188 1.4013939211758641 -0.156 0 0 39.370078740157481 I I #
-419 cone-surface $-1 0.86910680881335212 1.4013939211758653 -0.156 0 0 1 0.015000000000000249 0 0 1 I I 0 1 0.015000000000000249 forward I I I I #
-420 straight-curve $-1 1.1551068088133523 1.3863939211758645 -0.156 -39.370078740157481 0 0 I I #
-421 point $-1 0.86910680881335212 1.3863939211758645 -0.156 #
-422 ellipse-curve $-1 0.3871068088133523 1.4173939211758642 0.063000000000000014 0 1 0 0 0 0.125 1 I I #
-423 face $-1 $264 $398 $3 $-1 $433 forward single #
-424 cone-surface $-1 0.3871068088133523 -0.86317384875473746 0.063000000000000014 0 1 0 0 0 0.125 1 I I 0 1 0.125 forward I I I I #
-425 straight-curve $-1 0.2621068088133523 1.4173939211758642 0.063000000000000014 0 39.370078740157481 0 I I #
-426 cone-surface $-1 0.86910680881335212 1.5273939211758627 -0.156 0 0 1 0.014999999999999703 0 0 1 I I 0 1 0.014999999999999703 forward I I I I #
-427 straight-curve $-1 0.85410680881335244 1.5273939211758649 -0.156 0 39.370078740157481 0 I I #
-428 point $-1 0.85410680881335244 1.5273939211758649 -0.156 #
-429 straight-curve $-1 0.85410680881335244 1.5273939211758649 -0.156 0 0 39.370078740157481 I I #
-430 plane-surface $-1 0.85410680881335244 1.5273939211758649 -0.156 1 0 0 0 0 -39.370078740157481 forward_v I I I I #
-431 ellipse-curve $-1 0.86910680881335212 1.4013939211758653 -0.156 0 0 -1 -0.015000000000000249 0 0 1 I I #
-432 point $-1 0.85410680881335188 1.4013939211758641 -0.156 #
-433 sphere-surface $-1 0.38710680881335219 1.4173939211758642 0.063000000000000014 0.125 1 0 0 0 0 1 forward_v I I I I #
End-of-ACIS-data 